<?xml version="1.0" encoding="UTF-8"?>
<svg id="Layer_1" xmlns="http://www.w3.org/2000/svg" version="1.1" viewBox="0 0 41.71 47.11">
  <!-- Generator: Adobe Illustrator 29.0.1, SVG Export Plug-In . SVG Version: 2.1.0 Build 192)  -->
  <defs>
    <style>
      .st0 {
        fill: #141039;
      }
    </style>
  </defs>
  <path class="st0" d="M29.93,19.6c0,1.83-1.5,3.3-3.35,3.3s-3.35-1.48-3.35-3.3c0-1.3.77-2.43,1.88-2.96v-2.87l-16.73-3.38,5.02-1.37,14.27,3.02.07,4.47c1.29.46,2.2,1.67,2.2,3.1Z"/>
  <path class="st0" d="M32.49,25.23c.61.6.99,1.43.99,2.35,0,1.83-1.5,3.3-3.35,3.3s-3.35-1.48-3.35-3.3,1.5-3.3,3.35-3.3c.05,0,.1,0,.15,0,.96-4.11,1.22-8.44.77-13l-14.45-3.15,4.65-1.27,12.27,2.56c.89,5.94.63,11.26-1.01,15.81Z"/>
  <path class="st0" d="M32.92,35.6c.24.44.36.95.36,1.48,0,1.83-1.5,3.3-3.35,3.3s-3.35-1.48-3.35-3.3,1.5-3.3,3.35-3.3c.47,0,.91.09,1.3.26h0c4.99-5.87,6.97-14.53,6.08-25.84l-16.62-3.78-16.41,3.78c-.52,15.94,2.63,27.4,16.48,33.93v2.77C6.07,38.42.6,24.82,1.61,6.22L20.9,2.2l18.93,4.02c1.29,12.01-.62,22.04-6.91,29.38Z"/>
  <path class="st0" d="M16.59,23.11l1.43,6.53h-6.06l1.41-6.55c-.85-.52-1.41-1.46-1.41-2.52,0-1.65,1.36-2.98,3.03-2.98s3.03,1.34,3.03,2.98c0,1.07-.57,2.01-1.43,2.54Z"/>
</svg>